<?xml version="1.0" standalone="no"?>
<!DOCTYPE svg PUBLIC "-//W3C//DTD SVG 20010904//EN"
 "http://www.w3.org/TR/2001/REC-SVG-20010904/DTD/svg10.dtd">
<svg version="1.0" xmlns="http://www.w3.org/2000/svg"
 width="300.000000pt" height="300.000000pt" viewBox="0 0 300.000000 300.000000"
 preserveAspectRatio="xMidYMid meet">

<g transform="translate(0.000000,300.000000) scale(0.100000,-0.100000)"
fill="#000000" stroke="none">
<path d="M1301 2584 c-41 -13 -98 -41 -128 -60 -117 -78 -225 -233 -254 -364
-7 -30 -14 -56 -15 -58 -1 -2 -167 79 -368 180 -300 150 -368 180 -376 168
-26 -42 -33 -308 -11 -425 19 -97 63 -230 104 -312 115 -226 324 -424 555
-524 l87 -37 -1 -99 c-1 -86 -5 -108 -28 -159 -15 -32 -41 -74 -59 -93 -36
-38 -119 -81 -157 -81 -44 -1 -54 -13 -41 -53 18 -53 84 -151 136 -201 85 -81
219 -136 332 -136 l53 0 0 193 0 194 51 11 c214 50 439 222 537 410 23 44 42
85 42 91 0 6 -15 11 -33 11 -49 0 -144 27 -201 58 -28 15 -79 54 -112 87 -96
95 -142 202 -151 355 -5 87 -8 98 -36 129 -72 84 -91 200 -48 296 45 101 124
156 235 163 59 4 82 0 121 -17 26 -12 50 -20 52 -17 2 2 -16 73 -40 157 l-43
154 -65 2 c-47 2 -83 -4 -138 -23z"/>
<path d="M2408 2273 c-18 -21 -44 -55 -56 -75 -13 -21 -25 -38 -27 -38 -1 0
-22 7 -46 16 -69 24 -234 61 -349 78 -137 20 -330 31 -330 20 0 -5 29 -103 64
-219 l64 -210 577 -3 577 -2 -6 27 c-17 72 -64 141 -161 239 -85 86 -239 204
-265 204 -4 0 -23 -17 -42 -37z"/>
<path d="M1346 2161 c-39 -26 -55 -57 -56 -104 0 -71 53 -127 122 -127 45 0
78 19 105 59 74 110 -61 244 -171 172z"/>
</g>
</svg>
